<svg width="42" height="42" viewBox="0 0 42 42" fill="none" xmlns="http://www.w3.org/2000/svg">
    <g clip-path="url(#clip0_15_111)">
        <path d="M9.13297 0L0 5.28L9.13297 10.56L18.2659 5.28L9.13297 0Z" fill="url(#paint0_linear_15_111)"/>
        <path d="M9.133 10.56L18.266 5.28003L18.266 15.84L9.133 21.12L9.133 10.56Z" fill="url(#paint1_linear_15_111)"/>
        <path d="M2.85408e-05 5.28003L2.67029e-05 15.84L9.133 21.12L9.133 10.56L2.85408e-05 5.28003Z" fill="url(#paint2_linear_15_111)"/>
    </g>
    <g clip-path="url(#clip1_15_111)">
        <path d="M32.133 0L23 5.28L32.133 10.56L41.2659 5.28L32.133 0Z" fill="url(#paint3_linear_15_111)"/>
        <path d="M32.1329 10.56L41.2659 5.28003L41.2659 15.84L32.133 21.12L32.1329 10.56Z" fill="url(#paint4_linear_15_111)"/>
        <path d="M23 5.28003L23 15.84L32.133 21.12L32.133 10.56L23 5.28003Z" fill="url(#paint5_linear_15_111)"/>
    </g>
    <g clip-path="url(#clip2_15_111)">
        <path d="M20.633 20L11.5 25.28L20.633 30.56L29.7659 25.28L20.633 20Z" fill="url(#paint6_linear_15_111)"/>
        <path d="M20.633 30.56L29.7659 25.28L29.7659 35.84L20.633 41.12L20.633 30.56Z" fill="url(#paint7_linear_15_111)"/>
        <path d="M11.5 25.28L11.5 35.84L20.633 41.12L20.633 30.56L11.5 25.28Z" fill="url(#paint8_linear_15_111)"/>
    </g>
    <defs>
        <linearGradient id="paint0_linear_15_111" x1="0" y1="5.28" x2="18.2659" y2="5.28" gradientUnits="userSpaceOnUse">
            <stop stop-color="#0076FF"/>
            <stop offset="1" stop-color="#00ABFF"/>
        </linearGradient>
        <linearGradient id="paint1_linear_15_111" x1="9.133" y1="13.2" x2="18.266" y2="13.2" gradientUnits="userSpaceOnUse">
            <stop stop-color="#0076FF"/>
            <stop offset="1" stop-color="#00ABFF"/>
        </linearGradient>
        <linearGradient id="paint2_linear_15_111" x1="2.67029e-05" y1="13.2" x2="9.133" y2="13.2" gradientUnits="userSpaceOnUse">
            <stop stop-color="#0076FF"/>
            <stop offset="1" stop-color="#00ABFF"/>
        </linearGradient>
        <linearGradient id="paint3_linear_15_111" x1="23" y1="5.28" x2="41.2659" y2="5.28" gradientUnits="userSpaceOnUse">
            <stop stop-color="#0076FF"/>
            <stop offset="1" stop-color="#00ABFF"/>
        </linearGradient>
        <linearGradient id="paint4_linear_15_111" x1="32.1329" y1="13.2" x2="41.2659" y2="13.2" gradientUnits="userSpaceOnUse">
            <stop stop-color="#0076FF"/>
            <stop offset="1" stop-color="#00ABFF"/>
        </linearGradient>
        <linearGradient id="paint5_linear_15_111" x1="23" y1="13.2" x2="32.133" y2="13.2" gradientUnits="userSpaceOnUse">
            <stop stop-color="#0076FF"/>
            <stop offset="1" stop-color="#00ABFF"/>
        </linearGradient>
        <linearGradient id="paint6_linear_15_111" x1="11.5" y1="25.28" x2="29.7659" y2="25.28" gradientUnits="userSpaceOnUse">
            <stop stop-color="#0076FF"/>
            <stop offset="1" stop-color="#00ABFF"/>
        </linearGradient>
        <linearGradient id="paint7_linear_15_111" x1="20.633" y1="33.2" x2="29.7659" y2="33.2" gradientUnits="userSpaceOnUse">
            <stop stop-color="#0076FF"/>
            <stop offset="1" stop-color="#00ABFF"/>
        </linearGradient>
        <linearGradient id="paint8_linear_15_111" x1="11.5" y1="33.2" x2="20.633" y2="33.2" gradientUnits="userSpaceOnUse">
            <stop stop-color="#0076FF"/>
            <stop offset="1" stop-color="#00ABFF"/>
        </linearGradient>
        <clipPath id="clip0_15_111">
            <rect width="18.2659" height="21.12" fill="white"/>
        </clipPath>
        <clipPath id="clip1_15_111">
            <rect width="18.2659" height="21.12" fill="white" transform="translate(23)"/>
        </clipPath>
        <clipPath id="clip2_15_111">
            <rect width="18.2659" height="21.12" fill="white" transform="translate(11.5 20)"/>
        </clipPath>
    </defs>
</svg>
