<svg width="42" height="43" viewBox="0 0 42 43" fill="none" xmlns="http://www.w3.org/2000/svg">
    <g clip-path="url(#clip0_15_299)">
        <path d="M35.14 20.9641L16.9118 40.4943C16.7186 40.7005 16.4636 40.8382 16.1853 40.8867C15.907 40.9352 15.6205 40.8919 15.3689 40.7633C15.1174 40.6347 14.9145 40.4278 14.7909 40.1737C14.6673 39.9197 14.6297 39.6324 14.6837 39.3551L17.0696 27.4204L7.69023 23.8985C7.48879 23.8231 7.30916 23.6991 7.16737 23.5374C7.02559 23.3756 6.92607 23.1813 6.87771 22.9718C6.82936 22.7622 6.83366 22.5439 6.89024 22.3364C6.94682 22.1289 7.05392 21.9387 7.20197 21.7827L25.4302 2.25245C25.6234 2.0463 25.8784 1.90857 26.1567 1.86005C26.435 1.81153 26.7215 1.85484 26.9731 1.98345C27.2246 2.11207 27.4275 2.31901 27.5511 2.57304C27.6747 2.82707 27.7123 3.11442 27.6583 3.39171L25.2658 15.3393L34.6452 18.8564C34.8452 18.9323 35.0234 19.0562 35.1641 19.2173C35.3047 19.3784 35.4036 19.5716 35.4518 19.7799C35.5001 19.9883 35.4963 20.2053 35.4408 20.4118C35.3853 20.6183 35.2797 20.808 35.1335 20.9641H35.14Z" fill="url(#paint0_linear_15_299)"/>
    </g>
    <defs>
        <linearGradient id="paint0_linear_15_299" x1="6.84437" y1="21.3734" x2="35.4854" y2="21.3734" gradientUnits="userSpaceOnUse">
            <stop stop-color="#0076FF"/>
            <stop offset="1" stop-color="#00ABFF"/>
        </linearGradient>
        <clipPath id="clip0_15_299">
            <rect width="41.6646" height="41.6646" fill="white" transform="translate(0.335449 0.545166)"/>
        </clipPath>
    </defs>
</svg>
