<svg width="748" height="138" viewBox="0 0 748 138" fill="none" xmlns="http://www.w3.org/2000/svg">
    <g clip-path="url(#clip0_2_18)">
        <path d="M112.05 68.91C112.05 54.49 123.5 42.77 137.81 42.32C130.33 22.93 114.89 7.48999 95.5 0C95.06 14.31 83.32 25.76 68.9 25.76C54.49 25.76 42.75 14.31 42.31 0C22.92 7.48999 7.47998 22.93 0 42.32C14.31 42.77 25.75 54.49 25.75 68.91C25.75 83.3301 14.31 95.05 0 95.5C7.47998 114.89 22.92 130.33 42.31 137.82C42.75 123.51 54.49 112.06 68.9 112.06C83.32 112.06 95.06 123.51 95.5 137.82C114.89 130.33 130.33 114.89 137.81 95.5C123.5 95.05 112.05 83.33 112.05 68.91ZM68.9 98.7C52.45 98.7 39.12 85.36 39.12 68.91C39.12 52.46 52.45 39.12 68.9 39.12C85.36 39.12 98.69 52.46 98.69 68.91C98.69 85.36 85.36 98.7 68.9 98.7Z" fill="url(#paint0_linear_2_18)"/>
        <g clip-path="url(#clip1_2_18)">
            <path d="M180.504 59.46C180.504 54.4502 181.43 49.9287 183.279 45.8955C185.129 41.8623 187.769 38.4258 191.198 35.5869C194.627 32.749 198.803 30.5713 203.723 29.0557C208.641 27.54 214.158 26.7822 220.273 26.7822C226.67 26.7822 232.393 27.6172 237.44 29.2871C242.488 30.957 246.766 33.3711 250.272 36.5312C253.779 39.6914 256.458 43.5576 258.308 48.1309C260.157 52.7031 261.082 57.8799 261.082 63.6602V114.064H241.737V91.791C240.735 95.5938 239.226 99.0166 237.209 102.061C235.192 105.104 232.732 107.687 229.83 109.807C226.927 111.926 223.632 113.551 219.945 114.681C216.259 115.812 212.258 116.377 207.941 116.377C203.445 116.377 199.361 115.766 195.688 114.546C192.014 113.326 188.867 111.611 186.246 109.401C183.626 107.192 181.596 104.527 180.158 101.405C178.719 98.2842 178 94.8223 178 91.0205C178 87.0645 178.783 83.5195 180.35 80.3848C181.917 77.251 184.172 74.5918 187.113 72.4082C190.055 70.2246 193.645 68.5479 197.884 67.3789C202.123 66.21 206.901 65.626 212.219 65.626H241.737V63.6602C241.737 60.4492 241.236 57.5654 240.234 55.0088C239.232 52.4531 237.787 50.2754 235.899 48.4775C234.011 46.6797 231.718 45.3047 229.021 44.3535C226.323 43.4043 223.278 42.9277 219.888 42.9277C216.445 42.9277 213.458 43.3135 210.928 44.084C208.397 44.8545 206.311 45.96 204.666 47.3984C203.021 48.8369 201.801 50.5771 201.006 52.6201C200.209 54.6621 199.811 56.9424 199.811 59.46H180.504ZM213.298 79.1895C208.031 79.1895 204.043 80.0762 201.333 81.8486C198.622 83.6211 197.268 86.2422 197.268 89.71C197.268 93.3584 198.757 96.1523 201.737 98.0918C204.717 100.031 208.994 101.001 214.57 101.001C218.525 101.001 222.167 100.52 225.494 99.5557C228.821 98.5928 231.686 97.25 234.088 95.5293C236.489 93.8076 238.365 91.7588 239.714 89.3828C241.062 87.0068 241.737 84.418 241.737 81.6172V79.1895H213.298Z" fill="white"/>
            <path d="M291.138 114.064H271.793V29.0938H291.138V57.3789C292.011 52.9863 293.289 49.043 294.973 45.5488C296.654 42.0547 298.762 39.0879 301.292 36.6465C303.822 34.2061 306.789 32.3379 310.193 31.04C313.598 29.7432 317.458 29.0938 321.773 29.0938H326.244V47.3594H319.886C314.413 47.3594 309.84 47.8936 306.167 48.959C302.493 50.0254 299.539 51.6367 297.304 53.7949C295.068 55.9531 293.482 58.6768 292.545 61.9648C291.606 65.2529 291.138 69.1318 291.138 73.6025V114.064Z" fill="white"/>
            <path d="M370.751 72.2539L417.88 114.064H391.984L354.604 80.1152V114.064H335.26V0H354.604V65.8955L390.559 29.0938H414.219L370.751 72.2539Z" fill="white"/>
            <path d="M476.185 113.409C469.325 115.361 463.211 116.338 457.842 116.338C453.396 116.338 449.473 115.67 446.069 114.334C442.665 112.999 439.813 111.008 437.515 108.361C435.215 105.716 433.48 102.421 432.312 98.4766C431.143 94.5332 430.559 89.9668 430.559 84.7773V44.8164H419.46V29.0938H430.559V9.51758H449.903V29.0938H476.185V44.8164H449.903V84.8164C449.903 90.083 450.879 93.9492 452.832 96.415C454.784 98.8818 457.88 100.114 462.119 100.114C463.814 100.114 465.806 99.9219 468.092 99.5361C470.378 99.1514 473.076 98.5605 476.185 97.7637V113.409Z" fill="white"/>
            <path d="M505.276 114.064H485.932V0H505.276V54.1035C506.253 49.7617 507.652 45.8955 509.477 42.5039C511.301 39.1133 513.517 36.2559 516.124 33.9297C518.731 31.6055 521.705 29.833 525.045 28.6123C528.385 27.3926 532.033 26.7822 535.989 26.7822C540.69 26.7822 544.872 27.6484 548.532 29.3828C552.193 31.1172 555.289 33.6416 557.819 36.9551C560.35 40.2695 562.271 44.335 563.581 49.1514C564.891 53.9688 565.546 59.46 565.546 65.626V114.064H546.201V67.5527C546.201 51.7529 539.817 43.8525 527.049 43.8525C523.632 43.8525 520.575 44.4053 517.878 45.5098C515.181 46.6152 512.894 48.2266 511.019 50.3467C509.143 52.4658 507.717 55.0732 506.741 58.1689C505.765 61.2646 505.276 64.8037 505.276 68.7852V114.064Z" fill="white"/>
            <path d="M707.193 26.7822C713.205 26.7822 718.562 27.4502 723.263 28.7861C727.964 30.1221 731.934 32.0361 735.171 34.5273C738.407 37.0195 740.874 40.0449 742.569 43.6025C744.265 47.1611 745.112 51.1621 745.112 55.6064H726.076C726.076 53.5254 725.672 51.6436 724.862 49.9609C724.053 48.2783 722.864 46.8457 721.298 45.6641C719.73 44.4824 717.784 43.5703 715.46 42.9277C713.134 42.2861 710.47 41.9648 707.464 41.9648C704.766 41.9648 702.306 42.2148 700.084 42.7158C697.861 43.2168 695.947 43.9297 694.342 44.8545C692.736 45.7793 691.497 46.8848 690.624 48.1689C689.75 49.4541 689.313 50.8799 689.313 52.4463C689.313 53.6797 689.563 54.7529 690.064 55.6641C690.565 56.5762 691.26 57.3789 692.146 58.0723C693.032 58.7666 694.078 59.3574 695.286 59.8447C696.493 60.334 697.804 60.7637 699.217 61.1357C700.63 61.5088 702.107 61.8301 703.648 62.0996C705.19 62.3691 706.744 62.6328 708.312 62.8896L713.976 63.8145C715.723 64.0977 717.541 64.4053 719.429 64.7393C721.317 65.0732 723.225 65.4775 725.151 65.9531C727.078 66.4287 728.979 66.9932 730.854 67.6484C732.729 68.3037 734.509 69.0938 736.191 70.0186C737.874 70.9434 739.435 72.0166 740.874 73.2363C742.312 74.457 743.558 75.8701 744.611 77.4756C745.665 79.0811 746.486 80.9043 747.078 82.9473C747.669 84.9893 747.964 87.2822 747.964 89.8262C747.964 94.0645 747.109 97.8281 745.401 101.116C743.692 104.405 741.188 107.18 737.887 109.44C734.586 111.701 730.508 113.423 725.652 114.604C720.797 115.785 715.209 116.377 708.89 116.377C702.286 116.377 696.48 115.728 691.472 114.431C686.462 113.134 682.274 111.232 678.909 108.728C675.543 106.223 673.013 103.14 671.317 99.4785C669.622 95.8184 668.774 91.624 668.774 86.8975H687.771C687.771 91.4697 689.499 94.9834 692.955 97.4365C696.41 99.8896 701.696 101.116 708.812 101.116C711.973 101.116 714.798 100.873 717.29 100.385C719.781 99.8965 721.896 99.1895 723.629 98.2646C725.363 97.3398 726.687 96.1973 727.599 94.835C728.51 93.4736 728.966 91.9199 728.966 90.1729C728.966 88.7852 728.709 87.5781 728.195 86.5498C727.682 85.5234 726.956 84.6172 726.019 83.833C725.08 83.0498 723.97 82.3828 722.685 81.8301C721.4 81.2773 719.987 80.7891 718.446 80.3652C716.904 79.9414 715.267 79.5625 713.533 79.2285C711.799 78.8945 710.02 78.5732 708.195 78.2646L702.531 77.3018C700.424 76.9424 698.157 76.5254 695.729 76.0488C693.302 75.5742 690.899 74.958 688.523 74.1992C686.146 73.4424 683.86 72.4912 681.664 71.3477C679.468 70.2051 677.527 68.792 675.846 67.1094C674.162 65.4268 672.82 63.416 671.818 61.0781C670.816 58.7412 670.315 55.9912 670.315 52.832C670.315 48.8242 671.156 45.2148 672.84 42.0029C674.521 38.792 676.956 36.0625 680.142 33.8145C683.327 31.5664 687.2 29.833 691.761 28.6123C696.32 27.3926 701.465 26.7822 707.193 26.7822Z" fill="white"/>
            <path d="M619.599 26.3993C594.757 26.3993 574.615 46.5411 574.615 71.383C574.615 96.2352 594.757 116.377 619.599 116.377C644.451 116.377 664.593 96.2352 664.593 71.383C664.593 46.5411 644.451 26.3993 619.599 26.3993ZM619.599 97.4537C605.202 97.4537 593.528 85.7802 593.528 71.383C593.528 56.9858 605.202 45.3225 619.599 45.3225C633.996 45.3225 645.67 56.9858 645.67 71.383C645.67 85.7802 633.996 97.4537 619.599 97.4537Z" fill="white"/>
        </g>
    </g>
    <defs>
        <linearGradient id="paint0_linear_2_18" x1="0" y1="68.91" x2="137.81" y2="68.91" gradientUnits="userSpaceOnUse">
            <stop stop-color="#0076FF"/>
            <stop offset="1" stop-color="#00ABFF"/>
        </linearGradient>
        <clipPath id="clip0_2_18">
            <rect width="748" height="138" fill="white"/>
        </clipPath>
        <clipPath id="clip1_2_18">
            <rect width="569.964" height="116.377" fill="white" transform="translate(178)"/>
        </clipPath>
    </defs>
</svg>
