<svg width="46" height="46" viewBox="0 0 46 46" fill="none" xmlns="http://www.w3.org/2000/svg">
    <path d="M37.375 5.75L8.625 5.75C7.8625 5.75 7.13123 6.0529 6.59207 6.59207C6.0529 7.13123 5.75 7.8625 5.75 8.625L5.75 37.375C5.75 38.1375 6.0529 38.8688 6.59207 39.4079C7.13123 39.9471 7.8625 40.25 8.625 40.25H28.1552C28.5328 40.2506 28.9068 40.1765 29.2556 40.0318C29.6044 39.8872 29.9211 39.6749 30.1875 39.4073L39.4073 30.1875C39.6749 29.9211 39.8872 29.6044 40.0318 29.2556C40.1765 28.9068 40.2506 28.5328 40.25 28.1552V8.625C40.25 7.8625 39.9471 7.13123 39.4079 6.59207C38.8688 6.0529 38.1375 5.75 37.375 5.75ZM17.25 15.8125H28.75C29.1312 15.8125 29.4969 15.964 29.7665 16.2335C30.0361 16.5031 30.1875 16.8688 30.1875 17.25C30.1875 17.6312 30.0361 17.9969 29.7665 18.2665C29.4969 18.536 29.1312 18.6875 28.75 18.6875H17.25C16.8688 18.6875 16.5031 18.536 16.2335 18.2665C15.964 17.9969 15.8125 17.6312 15.8125 17.25C15.8125 16.8688 15.964 16.5031 16.2335 16.2335C16.5031 15.964 16.8688 15.8125 17.25 15.8125ZM23 30.1875H17.25C16.8688 30.1875 16.5031 30.0361 16.2335 29.7665C15.964 29.4969 15.8125 29.1312 15.8125 28.75C15.8125 28.3688 15.964 28.0031 16.2335 27.7335C16.5031 27.4639 16.8688 27.3125 17.25 27.3125H23C23.3812 27.3125 23.7469 27.4639 24.0165 27.7335C24.2861 28.0031 24.4375 28.3688 24.4375 28.75C24.4375 29.1312 24.2861 29.4969 24.0165 29.7665C23.7469 30.0361 23.3812 30.1875 23 30.1875ZM17.25 24.4375C16.8688 24.4375 16.5031 24.2861 16.2335 24.0165C15.964 23.7469 15.8125 23.3812 15.8125 23C15.8125 22.6188 15.964 22.2531 16.2335 21.9835C16.5031 21.714 16.8688 21.5625 17.25 21.5625H28.75C29.1312 21.5625 29.4969 21.714 29.7665 21.9835C30.0361 22.2531 30.1875 22.6188 30.1875 23C30.1875 23.3812 30.0361 23.7469 29.7665 24.0165C29.4969 24.2861 29.1312 24.4375 28.75 24.4375H17.25ZM28.75 36.7802V28.75H36.782L28.75 36.7802Z" fill="url(#paint0_linear_15_138)"/>
    <defs>
        <linearGradient id="paint0_linear_15_138" x1="5.75" y1="23" x2="40.25" y2="23" gradientUnits="userSpaceOnUse">
            <stop stop-color="#0076FF"/>
            <stop offset="1" stop-color="#00ABFF"/>
        </linearGradient>
    </defs>
</svg>
