<svg width="46" height="46" viewBox="0 0 46 46" fill="none" xmlns="http://www.w3.org/2000/svg">
    <path d="M8.62503 6.00586H37.375C38.0697 6.00586 38.7363 6.28122 39.2276 6.77246C39.7188 7.2637 39.9942 7.93028 39.9942 8.625V37.375C39.9942 38.0697 39.7188 38.7363 39.2276 39.2275C38.7363 39.7188 38.0697 39.9941 37.375 39.9941H8.62503C7.93031 39.9941 7.26373 39.7188 6.77249 39.2275C6.28125 38.7363 6.00589 38.0697 6.00589 37.375V8.625C6.00589 7.93028 6.28125 7.2637 6.77249 6.77246C7.26373 6.28122 7.93031 6.00586 8.62503 6.00586ZM11.5 25.6191C11.051 25.6191 10.6203 25.7977 10.3028 26.1152C9.98526 26.4327 9.80667 26.8635 9.80667 27.3125V33.0625C9.80667 33.8928 10.1366 34.6893 10.7237 35.2764C11.3108 35.8635 12.1073 36.1934 12.9375 36.1934H18.6875C19.1366 36.1934 19.5673 36.0148 19.8848 35.6973C20.2023 35.3798 20.3809 34.949 20.3809 34.5C20.3809 34.051 20.2023 33.6202 19.8848 33.3027C19.5673 32.9852 19.1366 32.8066 18.6875 32.8066H13.1934V27.3125C13.1934 26.8635 13.0148 26.4327 12.6973 26.1152C12.3798 25.7977 11.9491 25.6191 11.5 25.6191ZM34.5 25.6191C34.051 25.6191 33.6203 25.7977 33.3028 26.1152C32.9853 26.4327 32.8067 26.8635 32.8067 27.3125V32.8066H27.3125C26.8635 32.8066 26.4328 32.9852 26.1153 33.3027C25.7978 33.6202 25.6192 34.051 25.6192 34.5C25.6192 34.949 25.7978 35.3798 26.1153 35.6973C26.4328 36.0148 26.8635 36.1934 27.3125 36.1934H33.0625C33.8928 36.1934 34.6893 35.8635 35.2764 35.2764C35.8635 34.6893 36.1934 33.8928 36.1934 33.0625V27.3125C36.1934 26.8635 36.0148 26.4327 35.6973 26.1152C35.3798 25.7977 34.9491 25.6191 34.5 25.6191ZM12.9375 9.80664C12.1073 9.80664 11.3108 10.1365 10.7237 10.7236C10.1366 11.3107 9.80667 12.1072 9.80667 12.9375V18.6875C9.80667 19.1365 9.98526 19.5673 10.3028 19.8848C10.6203 20.2023 11.051 20.3809 11.5 20.3809C11.9491 20.3809 12.3798 20.2023 12.6973 19.8848C13.0148 19.5673 13.1934 19.1365 13.1934 18.6875V13.1934H18.6875C19.1366 13.1934 19.5673 13.0148 19.8848 12.6973C20.2023 12.3798 20.3809 11.949 20.3809 11.5C20.3809 11.051 20.2023 10.6202 19.8848 10.3027C19.5673 9.98522 19.1366 9.80664 18.6875 9.80664H12.9375ZM27.3125 9.80664C26.8635 9.80664 26.4328 9.98523 26.1153 10.3027C25.7978 10.6202 25.6192 11.051 25.6192 11.5C25.6192 11.949 25.7978 12.3798 26.1153 12.6973C26.4328 13.0148 26.8635 13.1934 27.3125 13.1934H32.8067V18.6875C32.8067 19.1365 32.9853 19.5673 33.3028 19.8848C33.6203 20.2023 34.051 20.3809 34.5 20.3809C34.9491 20.3809 35.3798 20.2023 35.6973 19.8848C36.0148 19.5673 36.1934 19.1365 36.1934 18.6875V12.9375C36.1934 12.1072 35.8635 11.3107 35.2764 10.7236C34.6893 10.1365 33.8928 9.80664 33.0625 9.80664H27.3125Z" fill="url(#paint0_linear_15_150)" stroke="#202B4C" stroke-width="0.511111"/>
    <defs>
        <linearGradient id="paint0_linear_15_150" x1="5.75003" y1="23" x2="40.25" y2="23" gradientUnits="userSpaceOnUse">
            <stop stop-color="#0076FF"/>
            <stop offset="1" stop-color="#00ABFF"/>
        </linearGradient>
    </defs>
</svg>
