<svg width="138" height="138" viewBox="0 0 138 138" fill="none" xmlns="http://www.w3.org/2000/svg">
    <path d="M112.05 68.91C112.05 54.49 123.5 42.77 137.81 42.32C130.33 22.93 114.89 7.48999 95.5 0C95.06 14.31 83.32 25.76 68.9 25.76C54.49 25.76 42.75 14.31 42.31 0C22.92 7.48999 7.47998 22.93 0 42.32C14.31 42.77 25.75 54.49 25.75 68.91C25.75 83.3301 14.31 95.05 0 95.5C7.47998 114.89 22.92 130.33 42.31 137.82C42.75 123.51 54.49 112.06 68.9 112.06C83.32 112.06 95.06 123.51 95.5 137.82C114.89 130.33 130.33 114.89 137.81 95.5C123.5 95.05 112.05 83.33 112.05 68.91ZM68.9 98.7C52.45 98.7 39.12 85.36 39.12 68.91C39.12 52.46 52.45 39.12 68.9 39.12C85.36 39.12 98.69 52.46 98.69 68.91C98.69 85.36 85.36 98.7 68.9 98.7Z" fill="url(#paint0_linear_2_7)"/>
    <defs>
        <linearGradient id="paint0_linear_2_7" x1="0" y1="68.91" x2="137.81" y2="68.91" gradientUnits="userSpaceOnUse">
            <stop stop-color="#0076FF"/>
            <stop offset="1" stop-color="#00ABFF"/>
        </linearGradient>
    </defs>
</svg>
