<svg width="91" height="10" viewBox="0 0 91 10" fill="none" xmlns="http://www.w3.org/2000/svg">
    <path d="M4.896 9.168C2.4 9.168 0.48 7.224 0.48 4.704C0.48 2.196 2.412 0.252 4.896 0.252C7.392 0.252 9.324 2.196 9.324 4.704C9.324 7.224 7.404 9.168 4.896 9.168ZM4.896 8.58C7.068 8.58 8.688 6.912 8.688 4.704C8.688 2.496 7.056 0.84 4.896 0.84C2.748 0.84 1.116 2.508 1.116 4.704C1.116 6.912 2.736 8.58 4.896 8.58ZM2.7 4.728C2.7 3.288 3.636 2.292 4.992 2.292C6.036 2.292 6.816 2.904 7.008 3.852H6.276C6.108 3.252 5.664 2.94 5.004 2.94C4.056 2.94 3.408 3.672 3.408 4.716C3.408 5.772 4.032 6.48 4.944 6.48C5.628 6.48 6.108 6.156 6.3 5.58H7.02C6.804 6.516 5.976 7.128 4.944 7.128C3.624 7.128 2.7 6.144 2.7 4.728ZM19.3407 9H13.6767V8.316L16.4247 5.916C18.0087 4.536 18.4167 3.936 18.4167 2.916C18.4167 1.752 17.7207 1.044 16.5807 1.044C15.3927 1.044 14.6127 1.908 14.5767 3.24H13.7127C13.7607 1.44 14.9007 0.252 16.5927 0.252C18.2127 0.252 19.2927 1.296 19.2927 2.868C19.2927 4.116 18.7287 4.944 17.0127 6.444L15.0087 8.196H19.3407V9ZM20.535 4.704C20.535 2.04 21.843 0.24 23.979 0.24C26.103 0.24 27.411 2.04 27.411 4.704C27.411 7.38 26.127 9.156 23.979 9.156C21.819 9.156 20.535 7.38 20.535 4.704ZM21.387 4.704C21.387 6.936 22.335 8.376 23.979 8.376C25.623 8.376 26.571 6.936 26.571 4.704C26.571 2.46 25.623 1.032 23.979 1.032C22.335 1.032 21.387 2.46 21.387 4.704ZM34.2704 9H28.6064V8.316L31.3544 5.916C32.9384 4.536 33.3464 3.936 33.3464 2.916C33.3464 1.752 32.6504 1.044 31.5104 1.044C30.3224 1.044 29.5424 1.908 29.5064 3.24H28.6424C28.6904 1.44 29.8304 0.252 31.5224 0.252C33.1424 0.252 34.2224 1.296 34.2224 2.868C34.2224 4.116 33.6584 4.944 31.9424 6.444L29.9384 8.196H34.2704V9ZM38.2144 9.144C36.4864 9.144 35.3824 8.064 35.3824 6.372H36.2464C36.2464 7.608 37.0024 8.352 38.2264 8.352C39.5224 8.352 40.3624 7.488 40.3624 6.216C40.3624 5.016 39.5824 4.068 38.2264 4.068C37.4344 4.068 36.7144 4.428 36.2464 4.944L35.5624 4.728L36.5944 0.408H40.7464V1.2H37.2184L36.5704 3.9C37.0504 3.516 37.6744 3.3 38.3464 3.3C40.1344 3.3 41.2384 4.584 41.2384 6.192C41.2384 7.92 40.0144 9.144 38.2144 9.144ZM42.9861 9.132C42.5781 9.132 42.2301 8.796 42.2301 8.4C42.2301 7.992 42.5781 7.644 42.9861 7.644C43.3941 7.644 43.7421 7.992 43.7421 8.4C43.7421 8.796 43.3941 9.132 42.9861 9.132ZM48.9268 9H48.0508L51.2068 0.408H52.2748L55.4668 9H54.5668L53.7268 6.72H49.7668L48.9268 9ZM51.6268 1.62L50.0308 5.964H53.4508L51.8428 1.62C51.8068 1.5 51.7468 1.356 51.7348 1.272C51.7228 1.344 51.6748 1.5 51.6268 1.62ZM59.5172 3.12V3.864H59.0612C57.9932 3.864 57.3092 4.584 57.3092 5.688V9H56.4812V3.192H57.2612L57.3212 4.092C57.5492 3.468 58.1612 3.06 58.9772 3.06C59.1572 3.06 59.3132 3.072 59.5172 3.12ZM61.4819 9H60.6539V0.252H61.4819V6.192L64.3619 3.192H65.4059L63.1739 5.508L65.4179 9H64.4579L62.6099 6.096L61.4819 7.26V9ZM67.739 9H66.923V3.888H65.759V3.192H66.923V1.356H67.739V3.192H68.903V3.888H67.739V9ZM70.8092 8.988H69.9812V0.252H70.8092V4.2C71.1812 3.504 71.8892 3.036 72.8612 3.036C74.3852 3.036 75.0692 3.984 75.0692 5.448V9H74.2412V5.628C74.2412 4.272 73.6052 3.792 72.7052 3.792C71.4572 3.792 70.8092 4.716 70.8092 5.832V8.988ZM76.3115 6.096C76.3115 4.32 77.5595 3.036 79.2635 3.036C80.9675 3.036 82.2155 4.32 82.2155 6.096C82.2155 7.86 80.9675 9.144 79.2635 9.144C77.5595 9.144 76.3115 7.86 76.3115 6.096ZM77.1515 6.084C77.1515 7.452 78.0155 8.4 79.2635 8.4C80.4995 8.4 81.3755 7.452 81.3755 6.084C81.3755 4.74 80.4995 3.78 79.2635 3.78C78.0155 3.78 77.1515 4.74 77.1515 6.084ZM83.0478 7.368H83.8398C83.8398 8.04 84.3438 8.46 85.1598 8.46C86.0598 8.46 86.5878 8.076 86.5878 7.452C86.5878 6.972 86.3478 6.696 85.6638 6.528L84.6678 6.276C83.6598 6.024 83.1678 5.496 83.1678 4.704C83.1678 3.684 84.0198 3.036 85.2678 3.036C86.4918 3.036 87.2838 3.708 87.3198 4.788H86.5158C86.4918 4.116 86.0238 3.72 85.2438 3.72C84.4278 3.72 83.9718 4.068 83.9718 4.692C83.9718 5.136 84.2838 5.448 84.9198 5.604L85.9158 5.856C86.9238 6.108 87.3798 6.576 87.3798 7.416C87.3798 8.46 86.4918 9.144 85.1718 9.144C83.8638 9.144 83.0478 8.448 83.0478 7.368ZM89.3572 9.132C88.9492 9.132 88.6012 8.796 88.6012 8.4C88.6012 7.992 88.9492 7.644 89.3572 7.644C89.7652 7.644 90.1132 7.992 90.1132 8.4C90.1132 8.796 89.7652 9.132 89.3572 9.132Z" fill="#D5D8E2"/>
</svg>
